<svg width="200" height="200" viewBox="0 0 200 200" fill="none" xmlns="http://www.w3.org/2000/svg">
  <defs>
    <filter id="g" x="-30%" y="-30%" width="160%" height="160%">
      <feGaussianBlur in="SourceGraphic" stdDeviation="1.8" result="blur"/>
      <feMerge><feMergeNode in="blur"/><feMergeNode in="SourceGraphic"/></feMerge>
    </filter>
    <filter id="eg" x="-70%" y="-70%" width="240%" height="240%">
      <feGaussianBlur in="SourceGraphic" stdDeviation="3.5" result="blur"/>
      <feMerge><feMergeNode in="blur"/><feMergeNode in="SourceGraphic"/></feMerge>
    </filter>
  </defs>

  <rect width="200" height="200" fill="#000"/>

  <!-- Red chromatic aberration -->
  <g stroke="#ff0000" fill="none" opacity="0.4" transform="translate(-3,0)" stroke-linecap="round" stroke-linejoin="round">
    <path d="M 65,36 C 50,46 36,60 25,78 L 10,88 L 25,98 C 22,118 30,142 50,160 L 76,174 L 100,179 L 124,174 L 150,160 C 170,142 178,118 175,98 L 190,88 L 175,78 C 164,60 150,46 135,36 C 120,26 80,26 65,36 Z" stroke-width="2.0"/>
    <path d="M 65,36 C 55,20 40,8 24,4 C 30,14 50,26 68,42 Z" stroke-width="2.0"/>
    <path d="M 135,36 C 145,20 160,8 176,4 C 170,14 150,26 132,42 Z" stroke-width="2.0"/>
    <path d="M 70,42 C 62,28 48,16 32,10" stroke-width="1.1"/>
    <path d="M 130,42 C 138,28 152,16 168,10" stroke-width="1.1"/>
    <path d="M 26,90 L 92,103" stroke-width="2.2"/>
    <path d="M 174,90 L 108,103" stroke-width="2.2"/>
    <path d="M 96,102 L 90,140" stroke-width="1.3"/>
    <path d="M 104,102 L 110,140" stroke-width="1.3"/>
    <path d="M 90,140 C 94,148 106,148 110,140" stroke-width="1.3"/>
    <path d="M 38,152 C 68,141 132,141 162,152" stroke-width="1.8"/>
    <path d="M 38,152 C 68,175 132,175 162,152" stroke-width="1.8"/>
    <path d="M 56,150 L 64,167 L 72,150 L 80,167 L 88,150 L 96,167 L 104,150 L 112,167 L 120,150 L 128,167 L 136,150 L 144,167 L 150,155" stroke-width="1.3"/>
    <path d="M 30,113 L 52,105 L 90,103 L 88,113 L 52,119 Z" stroke-width="1.8"/>
    <path d="M 170,113 L 148,105 L 110,103 L 112,113 L 148,119 Z" stroke-width="1.8"/>
  </g>

  <!-- Blue chromatic aberration -->
  <g stroke="#0000ff" fill="none" opacity="0.4" transform="translate(3,0)" stroke-linecap="round" stroke-linejoin="round">
    <path d="M 65,36 C 50,46 36,60 25,78 L 10,88 L 25,98 C 22,118 30,142 50,160 L 76,174 L 100,179 L 124,174 L 150,160 C 170,142 178,118 175,98 L 190,88 L 175,78 C 164,60 150,46 135,36 C 120,26 80,26 65,36 Z" stroke-width="2.0"/>
    <path d="M 65,36 C 55,20 40,8 24,4 C 30,14 50,26 68,42 Z" stroke-width="2.0"/>
    <path d="M 135,36 C 145,20 160,8 176,4 C 170,14 150,26 132,42 Z" stroke-width="2.0"/>
    <path d="M 70,42 C 62,28 48,16 32,10" stroke-width="1.1"/>
    <path d="M 130,42 C 138,28 152,16 168,10" stroke-width="1.1"/>
    <path d="M 26,90 L 92,103" stroke-width="2.2"/>
    <path d="M 174,90 L 108,103" stroke-width="2.2"/>
    <path d="M 96,102 L 90,140" stroke-width="1.3"/>
    <path d="M 104,102 L 110,140" stroke-width="1.3"/>
    <path d="M 90,140 C 94,148 106,148 110,140" stroke-width="1.3"/>
    <path d="M 38,152 C 68,141 132,141 162,152" stroke-width="1.8"/>
    <path d="M 38,152 C 68,175 132,175 162,152" stroke-width="1.8"/>
    <path d="M 56,150 L 64,167 L 72,150 L 80,167 L 88,150 L 96,167 L 104,150 L 112,167 L 120,150 L 128,167 L 136,150 L 144,167 L 150,155" stroke-width="1.3"/>
    <path d="M 30,113 L 52,105 L 90,103 L 88,113 L 52,119 Z" stroke-width="1.8"/>
    <path d="M 170,113 L 148,105 L 110,103 L 112,113 L 148,119 Z" stroke-width="1.8"/>
  </g>

  <!-- Main near-white strokes with glow -->
  <g stroke="#edfff0" fill="none" filter="url(#g)" stroke-linecap="round" stroke-linejoin="round">
    <path d="M 65,36 C 50,46 36,60 25,78 L 10,88 L 25,98 C 22,118 30,142 50,160 L 76,174 L 100,179 L 124,174 L 150,160 C 170,142 178,118 175,98 L 190,88 L 175,78 C 164,60 150,46 135,36 C 120,26 80,26 65,36 Z" stroke-width="2.0"/>
    <path d="M 65,36 C 55,20 40,8 24,4 C 30,14 50,26 68,42 Z" stroke-width="2.0"/>
    <path d="M 135,36 C 145,20 160,8 176,4 C 170,14 150,26 132,42 Z" stroke-width="2.0"/>
    <path d="M 70,42 C 62,28 48,16 32,10" stroke-width="1.1"/>
    <path d="M 130,42 C 138,28 152,16 168,10" stroke-width="1.1"/>
    <path d="M 26,90 L 92,103" stroke-width="2.2"/>
    <path d="M 174,90 L 108,103" stroke-width="2.2"/>
    <path d="M 84,101 L 90,110" stroke-width="1.1"/>
    <path d="M 116,101 L 110,110" stroke-width="1.1"/>
    <path d="M 96,102 L 90,140" stroke-width="1.3"/>
    <path d="M 104,102 L 110,140" stroke-width="1.3"/>
    <path d="M 90,140 C 94,148 106,148 110,140" stroke-width="1.3"/>
    <path d="M 38,152 C 68,141 132,141 162,152" stroke-width="1.8"/>
    <path d="M 38,152 C 68,175 132,175 162,152" stroke-width="1.8"/>
    <path d="M 56,150 L 64,167 L 72,150 L 80,167 L 88,150 L 96,167 L 104,150 L 112,167 L 120,150 L 128,167 L 136,150 L 144,167 L 150,155" stroke-width="1.3"/>
    <path d="M 26,100 L 46,144" stroke-width="1.1"/>
    <path d="M 174,100 L 154,144" stroke-width="1.1"/>
    <path d="M 78,167 L 90,174 L 100,177 L 110,174 L 122,167" stroke-width="1.1"/>
    <path d="M 97,58 L 100,70 L 103,58" stroke-width="1.0"/>
  </g>

  <!-- Eyes — matrix green, strong glow -->
  <g stroke="#00ff41" fill="none" filter="url(#eg)" stroke-linecap="round" stroke-linejoin="round">
    <path d="M 30,113 L 52,105 L 90,103 L 88,113 L 52,119 Z" stroke-width="1.8"/>
    <path d="M 170,113 L 148,105 L 110,103 L 112,113 L 148,119 Z" stroke-width="1.8"/>
  </g>
</svg>
