<svg width="200" height="200" viewBox="0 0 200 200" fill="none" xmlns="http://www.w3.org/2000/svg">
  <defs>
    <filter id="g" x="-30%" y="-30%" width="160%" height="160%">
      <feGaussianBlur in="SourceGraphic" stdDeviation="1.8" result="blur"/>
      <feMerge><feMergeNode in="blur"/><feMergeNode in="SourceGraphic"/></feMerge>
    </filter>
    <filter id="eg" x="-70%" y="-70%" width="240%" height="240%">
      <feGaussianBlur in="SourceGraphic" stdDeviation="3.5" result="blur"/>
      <feMerge><feMergeNode in="blur"/><feMergeNode in="SourceGraphic"/></feMerge>
    </filter>
  </defs>

  <rect width="200" height="200" fill="#000"/>

  <!-- Red chromatic aberration -->
  <g stroke="#ff0000" fill="none" opacity="0.4" transform="translate(-3,0)" stroke-linecap="round" stroke-linejoin="round">
    <path d="M 84,56 C 92,50 108,50 116,56 C 136,60 150,73 159,89 L 184,95 L 161,106 C 167,128 155,151 133,167 C 121,177 110,183 100,185 C 90,183 79,177 67,167 C 45,151 33,128 39,106 L 16,95 L 39,89 C 48,73 64,60 84,56 Z" stroke-width="2.2"/>
    <path d="M 60,64 C 46,52 36,34 36,14 C 44,32 62,46 84,56 Z" stroke-width="2.4"/>
    <path d="M 140,64 C 154,52 164,34 164,14 C 156,32 138,46 116,56 Z" stroke-width="2.4"/>
    <path d="M 64,60 C 50,48 42,32 40,16" stroke-width="1.1"/>
    <path d="M 136,60 C 150,48 158,32 160,16" stroke-width="1.1"/>
    <path d="M 44,100 L 95,115" stroke-width="2.4"/>
    <path d="M 156,100 L 105,115" stroke-width="2.4"/>
    <path d="M 96,113 L 89,150" stroke-width="1.4"/>
    <path d="M 104,113 L 111,150" stroke-width="1.4"/>
    <path d="M 89,150 C 94,158 106,158 111,150" stroke-width="1.4"/>
    <path d="M 52,152 C 74,160 126,160 148,152" stroke-width="2.0"/>
    <path d="M 52,152 C 74,181 126,181 148,152" stroke-width="2.0"/>
    <path d="M 58,156 L 66,170 L 74,156 L 82,170 L 90,156 L 98,170 L 106,156 L 114,170 L 122,156 L 130,170 L 138,156 L 144,166" stroke-width="1.4"/>
    <path d="M 40,117 L 64,110 L 88,118 L 64,122 Z" stroke-width="2.0"/>
    <path d="M 160,117 L 136,110 L 112,118 L 136,122 Z" stroke-width="2.0"/>
  </g>

  <!-- Blue chromatic aberration -->
  <g stroke="#0000ff" fill="none" opacity="0.4" transform="translate(3,0)" stroke-linecap="round" stroke-linejoin="round">
    <path d="M 84,56 C 92,50 108,50 116,56 C 136,60 150,73 159,89 L 184,95 L 161,106 C 167,128 155,151 133,167 C 121,177 110,183 100,185 C 90,183 79,177 67,167 C 45,151 33,128 39,106 L 16,95 L 39,89 C 48,73 64,60 84,56 Z" stroke-width="2.2"/>
    <path d="M 60,64 C 46,52 36,34 36,14 C 44,32 62,46 84,56 Z" stroke-width="2.4"/>
    <path d="M 140,64 C 154,52 164,34 164,14 C 156,32 138,46 116,56 Z" stroke-width="2.4"/>
    <path d="M 64,60 C 50,48 42,32 40,16" stroke-width="1.1"/>
    <path d="M 136,60 C 150,48 158,32 160,16" stroke-width="1.1"/>
    <path d="M 44,100 L 95,115" stroke-width="2.4"/>
    <path d="M 156,100 L 105,115" stroke-width="2.4"/>
    <path d="M 96,113 L 89,150" stroke-width="1.4"/>
    <path d="M 104,113 L 111,150" stroke-width="1.4"/>
    <path d="M 89,150 C 94,158 106,158 111,150" stroke-width="1.4"/>
    <path d="M 52,152 C 74,160 126,160 148,152" stroke-width="2.0"/>
    <path d="M 52,152 C 74,181 126,181 148,152" stroke-width="2.0"/>
    <path d="M 58,156 L 66,170 L 74,156 L 82,170 L 90,156 L 98,170 L 106,156 L 114,170 L 122,156 L 130,170 L 138,156 L 144,166" stroke-width="1.4"/>
    <path d="M 40,117 L 64,110 L 88,118 L 64,122 Z" stroke-width="2.0"/>
    <path d="M 160,117 L 136,110 L 112,118 L 136,122 Z" stroke-width="2.0"/>
  </g>

  <!-- Main near-white strokes with glow -->
  <g stroke="#edfff0" fill="none" filter="url(#g)" stroke-linecap="round" stroke-linejoin="round">
    <path d="M 84,56 C 92,50 108,50 116,56 C 136,60 150,73 159,89 L 184,95 L 161,106 C 167,128 155,151 133,167 C 121,177 110,183 100,185 C 90,183 79,177 67,167 C 45,151 33,128 39,106 L 16,95 L 39,89 C 48,73 64,60 84,56 Z" stroke-width="2.2"/>
    <path d="M 60,64 C 46,52 36,34 36,14 C 44,32 62,46 84,56 Z" stroke-width="2.4"/>
    <path d="M 140,64 C 154,52 164,34 164,14 C 156,32 138,46 116,56 Z" stroke-width="2.4"/>
    <path d="M 64,60 C 50,48 42,32 40,16" stroke-width="1.1"/>
    <path d="M 136,60 C 150,48 158,32 160,16" stroke-width="1.1"/>
    <path d="M 44,100 L 95,115" stroke-width="2.4"/>
    <path d="M 156,100 L 105,115" stroke-width="2.4"/>
    <path d="M 97,101 L 100,113 L 103,101" stroke-width="1.0"/>
    <path d="M 96,113 L 89,150" stroke-width="1.4"/>
    <path d="M 104,113 L 111,150" stroke-width="1.4"/>
    <path d="M 89,150 C 94,158 106,158 111,150" stroke-width="1.4"/>
    <path d="M 89,150 C 83,153 84,159 90,158" stroke-width="1.1"/>
    <path d="M 111,150 C 117,153 116,159 110,158" stroke-width="1.1"/>
    <path d="M 41,106 L 60,150" stroke-width="1.2"/>
    <path d="M 159,106 L 140,150" stroke-width="1.2"/>
    <path d="M 52,152 C 58,142 64,138 73,137" stroke-width="1.3"/>
    <path d="M 148,152 C 142,142 136,138 127,137" stroke-width="1.3"/>
    <path d="M 52,152 C 74,160 126,160 148,152" stroke-width="2.0"/>
    <path d="M 52,152 C 74,181 126,181 148,152" stroke-width="2.0"/>
    <path d="M 58,156 L 66,170 L 74,156 L 82,170 L 90,156 L 98,170 L 106,156 L 114,170 L 122,156 L 130,170 L 138,156 L 144,166" stroke-width="1.4"/>
    <path d="M 86,176 L 100,184 L 114,176" stroke-width="1.1"/>
  </g>

  <!-- Eyes — matrix green, strong glow -->
  <g stroke="#00ff41" fill="none" filter="url(#eg)" stroke-linecap="round" stroke-linejoin="round">
    <path d="M 40,117 L 64,110 L 88,118 L 64,122 Z" stroke-width="2.0"/>
    <path d="M 160,117 L 136,110 L 112,118 L 136,122 Z" stroke-width="2.0"/>
  </g>
</svg>
