<svg width="200" height="200" viewBox="0 0 200 200" fill="none" xmlns="http://www.w3.org/2000/svg">
  <defs>
    <filter id="g" x="-25%" y="-25%" width="150%" height="150%">
      <feGaussianBlur in="SourceGraphic" stdDeviation="1.5" result="blur"/>
      <feMerge><feMergeNode in="blur"/><feMergeNode in="SourceGraphic"/></feMerge>
    </filter>
    <filter id="eg" x="-60%" y="-60%" width="220%" height="220%">
      <feGaussianBlur in="SourceGraphic" stdDeviation="3" result="blur"/>
      <feMerge><feMergeNode in="blur"/><feMergeNode in="SourceGraphic"/></feMerge>
    </filter>
  </defs>

  <rect width="200" height="200" fill="#000"/>

  <!-- Red chromatic aberration -->
  <g stroke="#ff0000" fill="none" opacity="0.4" transform="translate(-2,0)">
    <path d="M 72,40 C 52,52 36,72 28,98 L 12,104 L 28,112 C 30,136 40,160 56,175 L 78,188 L 100,193 L 122,188 L 144,175 C 160,160 170,136 172,112 L 188,104 L 172,98 C 164,72 148,52 128,40 L 100,30 Z" stroke-width="1.5" stroke-linejoin="round"/>
    <path d="M 74,42 C 62,26 40,12 15,5 C 24,18 50,30 72,46 Z" stroke-width="1.5" stroke-linejoin="round"/>
    <path d="M 126,42 C 138,26 160,12 185,5 C 176,18 150,30 128,46 Z" stroke-width="1.5" stroke-linejoin="round"/>
    <path d="M 44,76 L 90,67" stroke-width="2.0" stroke-linecap="round"/>
    <path d="M 156,76 L 110,67" stroke-width="2.0" stroke-linecap="round"/>
    <path d="M 46,92 L 60,82 L 90,79 L 88,88 L 58,91 Z" stroke-width="1.6" stroke-linejoin="round"/>
    <path d="M 154,92 L 140,82 L 110,79 L 112,88 L 142,91 Z" stroke-width="1.6" stroke-linejoin="round"/>
    <path d="M 96,106 L 100,120 L 104,106" stroke-width="1.2" stroke-linejoin="round"/>
    <path d="M 46,155 C 72,144 128,144 154,155" stroke-width="1.5"/>
    <path d="M 46,155 C 72,184 128,184 154,155" stroke-width="1.5"/>
    <path d="M 64,151 L 70,169 L 76,151 L 82,169 L 88,151 L 94,169 L 100,151 L 106,169 L 112,151 L 118,169 L 124,151 L 130,169 L 136,151" stroke-width="1.2" stroke-linejoin="round"/>
  </g>

  <!-- Blue chromatic aberration -->
  <g stroke="#0000ff" fill="none" opacity="0.4" transform="translate(2,0)">
    <path d="M 72,40 C 52,52 36,72 28,98 L 12,104 L 28,112 C 30,136 40,160 56,175 L 78,188 L 100,193 L 122,188 L 144,175 C 160,160 170,136 172,112 L 188,104 L 172,98 C 164,72 148,52 128,40 L 100,30 Z" stroke-width="1.5" stroke-linejoin="round"/>
    <path d="M 74,42 C 62,26 40,12 15,5 C 24,18 50,30 72,46 Z" stroke-width="1.5" stroke-linejoin="round"/>
    <path d="M 126,42 C 138,26 160,12 185,5 C 176,18 150,30 128,46 Z" stroke-width="1.5" stroke-linejoin="round"/>
    <path d="M 44,76 L 90,67" stroke-width="2.0" stroke-linecap="round"/>
    <path d="M 156,76 L 110,67" stroke-width="2.0" stroke-linecap="round"/>
    <path d="M 46,92 L 60,82 L 90,79 L 88,88 L 58,91 Z" stroke-width="1.6" stroke-linejoin="round"/>
    <path d="M 154,92 L 140,82 L 110,79 L 112,88 L 142,91 Z" stroke-width="1.6" stroke-linejoin="round"/>
    <path d="M 96,106 L 100,120 L 104,106" stroke-width="1.2" stroke-linejoin="round"/>
    <path d="M 46,155 C 72,144 128,144 154,155" stroke-width="1.5"/>
    <path d="M 46,155 C 72,184 128,184 154,155" stroke-width="1.5"/>
    <path d="M 64,151 L 70,169 L 76,151 L 82,169 L 88,151 L 94,169 L 100,151 L 106,169 L 112,151 L 118,169 L 124,151 L 130,169 L 136,151" stroke-width="1.2" stroke-linejoin="round"/>
  </g>

  <!-- Main white/green body layer -->
  <g stroke="#e0ffe8" fill="none" filter="url(#g)">
    <path d="M 72,40 C 52,52 36,72 28,98 L 12,104 L 28,112 C 30,136 40,160 56,175 L 78,188 L 100,193 L 122,188 L 144,175 C 160,160 170,136 172,112 L 188,104 L 172,98 C 164,72 148,52 128,40 L 100,30 Z" stroke-width="1.5" stroke-linejoin="round"/>
    <path d="M 74,42 C 62,26 40,12 15,5 C 24,18 50,30 72,46 Z" stroke-width="1.5" stroke-linejoin="round"/>
    <path d="M 126,42 C 138,26 160,12 185,5 C 176,18 150,30 128,46 Z" stroke-width="1.5" stroke-linejoin="round"/>
    <path d="M 44,76 L 90,67" stroke-width="2.0" stroke-linecap="round"/>
    <path d="M 156,76 L 110,67" stroke-width="2.0" stroke-linecap="round"/>
    <path d="M 96,106 L 100,120 L 104,106" stroke-width="1.2" stroke-linejoin="round"/>
    <path d="M 46,155 C 72,144 128,144 154,155" stroke-width="1.5"/>
    <path d="M 46,155 C 72,184 128,184 154,155" stroke-width="1.5"/>
    <path d="M 64,151 L 70,169 L 76,151 L 82,169 L 88,151 L 94,169 L 100,151 L 106,169 L 112,151 L 118,169 L 124,151 L 130,169 L 136,151" stroke-width="1.2" stroke-linejoin="round"/>
    <path d="M 34,115 L 56,142" stroke-width="1.0"/>
    <path d="M 166,115 L 144,142" stroke-width="1.0"/>
    <path d="M 95,52 L 100,64 L 105,52" stroke-width="1.0" stroke-linejoin="round"/>
    <path d="M 85,183 L 100,192 L 115,183" stroke-width="1.0" stroke-linejoin="round"/>
  </g>

  <!-- Eyes — matrix green glow -->
  <g stroke="#00ff41" fill="none" filter="url(#eg)">
    <path d="M 46,92 L 60,82 L 90,79 L 88,88 L 58,91 Z" stroke-width="1.6" stroke-linejoin="round"/>
    <path d="M 154,92 L 140,82 L 110,79 L 112,88 L 142,91 Z" stroke-width="1.6" stroke-linejoin="round"/>
  </g>
</svg>
